<svg xmlns="http://www.w3.org/2000/svg" width="1500" height="215" viewBox="0 0 1500 215"><g transform="matrix(1,0,0,1,-0.9090910594803745,-0.3223422274661516)"><svg viewBox="0 0 396 57" data-background-color="#ffffff" preserveAspectRatio="xMidYMid meet" height="215" width="1500" xmlns="http://www.w3.org/2000/svg" xmlns:xlink="http://www.w3.org/1999/xlink"><g id="tight-bounds" transform="matrix(1,0,0,1,0.2400000397028066,0.08545817193288485)"><svg viewBox="0 0 395.52 56.8290836561342" height="56.8290836561342" width="395.52"><g><svg viewBox="0 0 515.628726043422 74.0865392592727" height="56.8290836561342" width="395.52"><g><rect width="4.834443247257401" height="64.32984595595313" x="408.17561059491464" y="4.878346651659783" fill="#6575a8" opacity="1" stroke-width="0" stroke="transparent" fill-opacity="1" class="rect-yte-0" data-fill-palette-color="primary" rx="1%" id="yte-0" data-palette-color="#6575a8"></rect></g><g transform="matrix(1,0,0,1,0,10.23916714798921)"><svg viewBox="0 0 395.52 53.60820496329428" height="53.60820496329428" width="395.52"><g id="textblocktransform"><svg viewBox="0 0 395.52 53.60820496329428" height="53.60820496329428" width="395.52" id="textblock"><g><svg viewBox="0 0 395.52 53.60820496329428" height="53.60820496329428" width="395.52"><g transform="matrix(1,0,0,1,0,0)"><svg width="395.52" viewBox="2.0181819052480003 -33.9 332.351818094752 45.05" height="53.60820496329428" data-palette-color="#6575a8"><path d="M10.1-26.5L10.1-5.65Q10.1-5.55 10.1-5.35L10.1-5.35Q10.1-4.9 10.1-4.17 10.1-3.45 10.15-2.85 10.2-2.25 10.35-2.15L10.35-2.15Q10.85-1.8 11.58-1.73 12.3-1.65 13.85-1.65L13.85-1.65 16.6-1.65Q18-1.65 19.68-1.98 21.35-2.3 22.35-3L22.35-3Q23.25-3.65 24.03-4.8 24.8-5.95 25.4-7.9L25.4-7.9Q25.5-8.2 26.1-8.2L26.1-8.2Q27-8.2 27.3-7.9L27.3-7.9Q26.6-5.9 25.78-3.65 24.95-1.4 24.7 0.2L24.7 0.2Q20.75 0.2 16.85 0.1 12.95 0 8.05 0L8.05 0Q6.35 0 5 0.08 3.65 0.15 2.2 0.15L2.2 0.15Q2-0.05 2.02-0.55 2.05-1.05 2.2-1.25L2.2-1.25Q2.5-1.25 3.3-1.33 4.1-1.4 4.83-1.6 5.55-1.8 5.6-2.05L5.6-2.05Q5.8-2.65 5.83-3.6 5.85-4.55 5.85-5.65L5.85-5.65 5.85-26.5Q5.85-27.6 5.83-28.58 5.8-29.55 5.6-30.15L5.6-30.15Q5.55-30.45 4.83-30.6 4.1-30.75 3.3-30.83 2.5-30.9 2.2-30.9L2.2-30.9Q2.05-31.1 2.02-31.6 2-32.1 2.2-32.3L2.2-32.3Q3.7-32.25 5.15-32.18 6.6-32.1 8-32.1L8-32.1Q9.45-32.1 10.83-32.18 12.2-32.25 13.7-32.3L13.7-32.3Q13.9-32.1 13.88-31.6 13.85-31.1 13.7-30.9L13.7-30.9Q13.4-30.9 12.6-30.83 11.8-30.75 11.1-30.6 10.4-30.45 10.3-30.15L10.3-30.15Q10.15-29.65 10.13-28.85 10.1-28.05 10.1-27.1L10.1-27.1Q10.1-26.95 10.1-26.8 10.1-26.65 10.1-26.5L10.1-26.5ZM31.65-28.95L31.65-28.95Q31.65-29.95 32.37-30.68 33.1-31.4 34.1-31.4L34.1-31.4Q35.1-31.4 35.82-30.68 36.55-29.95 36.55-28.95L36.55-28.95Q36.55-27.95 35.82-27.23 35.1-26.5 34.1-26.5L34.1-26.5Q33.1-26.5 32.37-27.23 31.65-27.95 31.65-28.95ZM36.35-17.5L36.35-5.65Q36.35-4.55 36.37-3.6 36.4-2.65 36.6-2.05L36.6-2.05Q36.7-1.8 37.32-1.6 37.95-1.4 38.65-1.33 39.35-1.25 39.65-1.25L39.65-1.25Q39.8-1.05 39.82-0.55 39.85-0.05 39.65 0.15L39.65 0.15Q38.15 0.05 37.02-0.03 35.9-0.1 34.45-0.1L34.45-0.1Q33.05-0.1 31.9-0.03 30.75 0.05 29.25 0.15L29.25 0.15Q29.05-0.05 29.07-0.55 29.1-1.05 29.25-1.25L29.25-1.25Q29.55-1.25 30.27-1.33 31-1.4 31.65-1.6 32.3-1.8 32.35-2.05L32.35-2.05Q32.55-2.65 32.57-3.6 32.6-4.55 32.6-5.65L32.6-5.65 32.6-14.75Q32.6-15.25 32.57-16.05 32.55-16.85 32.35-17.3L32.35-17.3Q32.2-17.75 31.5-17.93 30.8-18.1 30.1-18.13 29.4-18.15 29.2-18.15L29.2-18.15Q29.15-18.25 29.1-18.75 29.05-19.25 29.2-19.45L29.2-19.45Q31.1-19.7 32.9-20.2 34.7-20.7 36.15-21.5L36.15-21.5Q36.35-21.5 36.52-21.2 36.7-20.9 36.7-20.7L36.7-20.7Q36.7-20.55 36.6-19.85 36.5-19.15 36.42-18.45 36.35-17.75 36.35-17.5L36.35-17.5ZM50.95 0.35L50.95 0.35Q50.4 0.35 49.27 0.08 48.15-0.2 47.35-0.4L47.35-0.4Q47.2-0.45 46.95-0.5L46.95-0.5Q46.3-0.7 45.6-0.83 44.9-0.95 44.2-0.7L44.2-0.7Q44-0.7 43.77-1.13 43.55-1.55 43.55-1.75L43.55-1.75Q43.9-2.5 44.02-3.55 44.15-4.6 44.15-5.35L44.15-5.35 44.15-27.25Q44.15-27.75 44.12-28.55 44.1-29.35 43.9-29.8L43.9-29.8Q43.7-30.35 42.8-30.5 41.9-30.65 40.9-30.65L40.9-30.65Q40.85-30.65 40.82-31.28 40.8-31.9 40.95-31.95L40.95-31.95Q42.8-32.15 44.57-32.68 46.35-33.2 47.9-33.9L47.9-33.9Q48.1-33.9 48.27-33.63 48.45-33.35 48.45-33.1L48.45-33.1Q48.45-33.1 48.17-32 47.9-30.9 47.9-28.85L47.9-28.85 47.9-19.25Q47.9-19.05 47.95-18.8 48-18.55 48.2-18.75L48.2-18.75Q48.6-19.05 49.65-19.68 50.7-20.3 51.95-20.85 53.2-21.4 54.1-21.4L54.1-21.4Q56.3-21.4 57.97-20.48 59.65-19.55 60.77-18.07 61.9-16.6 62.47-14.83 63.05-13.05 63.05-11.4L63.05-11.4Q63.05-8.2 61.47-5.53 59.9-2.85 57.17-1.25 54.45 0.35 50.95 0.35ZM51.75-18.5L51.75-18.5Q50.8-18.5 49.65-18.03 48.5-17.55 48.15-17.2L48.15-17.2Q47.9-16.95 47.9-16.65L47.9-16.65 47.9-4.8Q47.9-3.75 48.6-2.95 49.3-2.15 50.35-1.73 51.4-1.3 52.45-1.3L52.45-1.3Q54.2-1.3 55.67-2.53 57.15-3.75 58.05-5.63 58.95-7.5 58.95-9.45L58.95-9.45Q58.95-13.7 56.97-16.1 55-18.5 51.75-18.5ZM79.74-21.35L79.74-21.35Q80.69-21.35 81.54-20.93 82.39-20.5 82.74-19.9L82.74-19.9Q82.84-19.7 82.89-19.35 82.94-19 82.94-18.6L82.94-18.6Q82.94-17.25 82.32-16.65 81.69-16.05 81.29-16.05L81.29-16.05Q80.79-16.05 80.34-16.4 79.89-16.75 79.49-17L79.49-17Q79.14-17.25 78.77-17.43 78.39-17.6 77.69-17.6L77.69-17.6Q76.64-17.6 75.77-16.73 74.89-15.85 74.34-14.8 73.79-13.75 73.79-13.2L73.79-13.2 73.79-5.65Q73.79-4.55 73.82-3.6 73.84-2.65 74.04-2.05L74.04-2.05Q74.14-1.8 75.04-1.6 75.94-1.4 76.94-1.33 77.94-1.25 78.24-1.25L78.24-1.25Q78.39-1.05 78.42-0.55 78.44-0.05 78.24 0.15L78.24 0.15Q76.74 0.05 75.19-0.03 73.64-0.1 72.19-0.1L72.19-0.1Q70.79-0.1 69.49-0.03 68.19 0.05 66.69 0.15L66.69 0.15Q66.49-0.05 66.52-0.55 66.54-1.05 66.69-1.25L66.69-1.25Q66.99-1.25 67.72-1.33 68.44-1.4 69.09-1.6 69.74-1.8 69.79-2.05L69.79-2.05Q69.99-2.65 70.02-3.6 70.04-4.55 70.04-5.65L70.04-5.65 70.04-14.75Q70.04-15.25 70.02-16.05 69.99-16.85 69.79-17.3L69.79-17.3Q69.64-17.75 68.94-17.93 68.24-18.1 67.54-18.13 66.84-18.15 66.64-18.15L66.64-18.15Q66.59-18.25 66.54-18.75 66.49-19.25 66.64-19.45L66.64-19.45Q68.54-19.7 70.34-20.2 72.14-20.7 73.59-21.5L73.59-21.5Q73.79-21.5 73.97-21.2 74.14-20.9 74.14-20.7L74.14-20.7Q74.14-20.55 74.04-19.55 73.94-18.55 73.87-17.53 73.79-16.5 73.79-16.2L73.79-16.2Q73.79-16.05 73.87-16.05 73.94-16.05 73.99-16.1L73.99-16.1Q74.49-17.15 75.42-18.38 76.34-19.6 77.49-20.48 78.64-21.35 79.74-21.35ZM95.39-21.3L95.39-21.3Q96.79-21.3 98.02-20.4 99.24-19.5 99.99-18 100.74-16.5 100.74-14.6L100.74-14.6 100.74-4.55Q100.74-3.6 101.09-2.93 101.44-2.25 102.24-2.25L102.24-2.25Q102.94-2.25 103.34-2.55 103.74-2.85 103.84-2.9L103.84-2.9Q103.94-2.9 103.99-2.75 104.04-2.6 104.04-2.5L104.04-2.5Q104.04-1.95 103.79-1.55L103.79-1.55Q103.49-1.3 102.82-0.85 102.14-0.4 101.42-0.05 100.69 0.3 100.14 0.3L100.14 0.3Q99.09 0.3 98.27-0.75 97.44-1.8 97.19-2.9L97.19-2.9Q96.99-2.7 96.27-2.15 95.54-1.6 94.59-1.03 93.64-0.45 92.72-0.03 91.79 0.4 91.14 0.4L91.14 0.4Q88.74 0.4 87.09-1.23 85.44-2.85 85.44-5.2L85.44-5.2Q85.44-6.7 86.27-7.78 87.09-8.85 87.89-9.15L87.89-9.15Q89.29-9.65 91.02-10.23 92.74-10.8 94.24-11.35 95.74-11.9 96.44-12.2L96.44-12.2Q96.84-12.35 96.94-12.58 97.04-12.8 97.04-13.45L97.04-13.45 97.04-14.75Q97.04-15.85 96.49-16.93 95.94-18 94.99-18.73 94.04-19.45 92.84-19.45L92.84-19.45Q91.59-19.45 90.99-18.65 90.39-17.85 90.14-16.4L90.14-16.4Q89.69-14.05 87.84-14.05L87.84-14.05Q87.04-14.05 86.62-14.7 86.19-15.35 86.19-16.1L86.19-16.1Q86.19-16.25 86.29-16.68 86.39-17.1 86.54-17.3L86.54-17.3Q87.29-18 88.69-18.95 90.09-19.9 91.87-20.6 93.64-21.3 95.39-21.3ZM92.79-2.25L92.79-2.25Q93.64-2.25 94.64-2.65 95.64-3.05 96.34-3.53 97.04-4 97.04-4.25L97.04-4.25 97.04-10.9Q96.09-10.6 94.64-10.15 93.19-9.7 92.49-9.45L92.49-9.45Q91.19-8.95 90.34-8 89.49-7.05 89.49-5.65L89.49-5.65Q89.49-4.3 90.44-3.28 91.39-2.25 92.79-2.25ZM119.44-21.35L119.44-21.35Q120.39-21.35 121.24-20.93 122.09-20.5 122.44-19.9L122.44-19.9Q122.54-19.7 122.59-19.35 122.64-19 122.64-18.6L122.64-18.6Q122.64-17.25 122.01-16.65 121.39-16.05 120.99-16.05L120.99-16.05Q120.49-16.05 120.04-16.4 119.59-16.75 119.19-17L119.19-17Q118.84-17.25 118.46-17.43 118.09-17.6 117.39-17.6L117.39-17.6Q116.34-17.6 115.46-16.73 114.59-15.85 114.04-14.8 113.49-13.75 113.49-13.2L113.49-13.2 113.49-5.65Q113.49-4.55 113.51-3.6 113.54-2.65 113.74-2.05L113.74-2.05Q113.84-1.8 114.74-1.6 115.64-1.4 116.64-1.33 117.64-1.25 117.94-1.25L117.94-1.25Q118.09-1.05 118.11-0.55 118.14-0.05 117.94 0.15L117.94 0.15Q116.44 0.05 114.89-0.03 113.34-0.1 111.89-0.1L111.89-0.1Q110.49-0.1 109.19-0.03 107.89 0.05 106.39 0.15L106.39 0.15Q106.19-0.05 106.21-0.55 106.24-1.05 106.39-1.25L106.39-1.25Q106.69-1.25 107.41-1.33 108.14-1.4 108.79-1.6 109.44-1.8 109.49-2.05L109.49-2.05Q109.69-2.65 109.71-3.6 109.74-4.55 109.74-5.65L109.74-5.65 109.74-14.75Q109.74-15.25 109.71-16.05 109.69-16.85 109.49-17.3L109.49-17.3Q109.34-17.75 108.64-17.93 107.94-18.1 107.24-18.13 106.54-18.15 106.34-18.15L106.34-18.15Q106.29-18.25 106.24-18.75 106.19-19.25 106.34-19.45L106.34-19.45Q108.24-19.7 110.04-20.2 111.84-20.7 113.29-21.5L113.29-21.5Q113.49-21.5 113.66-21.2 113.84-20.9 113.84-20.7L113.84-20.7Q113.84-20.55 113.74-19.55 113.64-18.55 113.56-17.53 113.49-16.5 113.49-16.2L113.49-16.2Q113.49-16.05 113.56-16.05 113.64-16.05 113.69-16.1L113.69-16.1Q114.19-17.15 115.11-18.38 116.04-19.6 117.19-20.48 118.34-21.35 119.44-21.35ZM128.29-20.75L128.29-20.75Q129.69-20.75 131.11-20.85 132.54-20.95 133.19-21L133.19-21Q133.29-20.8 133.24-20.2 133.19-19.6 132.99-19.6L132.99-19.6Q132.84-19.6 132.24-19.55 131.64-19.5 131.11-19.33 130.59-19.15 130.59-18.75L130.59-18.75Q130.59-18.65 130.64-18.55L130.64-18.55 135.84-5.35Q135.84-5.35 136.24-6.43 136.64-7.5 137.29-9.18 137.94-10.85 138.69-12.8 139.44-14.75 140.14-16.45L140.14-16.45Q140.34-16.9 140.39-17.32 140.44-17.75 140.44-18L140.44-18Q140.44-18.75 139.66-19.18 138.89-19.6 137.64-19.6L137.64-19.6Q137.44-19.6 137.44-20.2 137.44-20.8 137.64-21L137.64-21Q138.19-20.95 139.36-20.85 140.54-20.75 142.04-20.75L142.04-20.75Q143.44-20.75 144.41-20.85 145.39-20.95 146.14-21L146.14-21Q146.29-20.8 146.21-20.2 146.14-19.6 145.99-19.6L145.99-19.6Q145.79-19.6 145.16-19.45 144.54-19.3 143.86-18.95 143.19-18.6 142.89-17.9L142.89-17.9Q141.79-15.3 140.91-13.2 140.04-11.1 139.21-9.13 138.39-7.15 137.51-5.03 136.64-2.9 135.59-0.3L135.59-0.3Q134.69 1.95 133.84 4.2 132.99 6.45 131.69 8.4L131.69 8.4Q130.89 9.65 129.76 10.4 128.64 11.15 127.44 11.15L127.44 11.15Q126.74 11.15 126.04 10.75 125.34 10.35 125.34 9.05L125.34 9.05Q125.34 8.6 125.51 8.2 125.69 7.8 125.89 7.6L125.89 7.6Q127.04 7.6 127.91 7.48 128.79 7.35 129.61 6.75 130.44 6.15 131.44 4.85L131.44 4.85Q131.84 4.3 132.34 3.23 132.84 2.15 133.26 1.15 133.69 0.15 133.74-0.1L133.74-0.1Q132.39-3.6 131.19-6.63 129.99-9.65 128.76-12.58 127.54-15.5 126.09-18.6L126.09-18.6Q125.74-19.35 124.84-19.48 123.94-19.6 123.49-19.6L123.49-19.6Q123.39-19.6 123.39-19.6L123.39-19.6Q123.34-19.6 123.34-20.28 123.34-20.95 123.39-21L123.39-21Q124.09-20.95 125.44-20.85 126.79-20.75 128.29-20.75ZM168.78-32.1L168.78-32.1Q170.03-32.1 170.98-32.18 171.93-32.25 172.73-32.3L172.73-32.3Q173.03-31.35 173.86-29.35 174.68-27.35 175.81-24.63 176.93-21.9 178.23-18.85 179.53-15.8 180.78-12.78 182.03-9.75 183.08-7.15L183.08-7.15Q183.13-7.05 183.28-7.05L183.28-7.05Q183.43-7.05 183.48-7.25L183.48-7.25Q184.93-10.95 186.08-13.93 187.23-16.9 188.41-19.88 189.58-22.85 190.98-26.45L190.98-26.45Q191.43-27.6 191.93-28.95 192.43-30.3 192.78-31.3 193.13-32.3 193.13-32.3L193.13-32.3Q195.48-32.15 196.98-32.15L196.98-32.15Q198.28-32.15 199.91-32.2 201.53-32.25 202.43-32.3L202.43-32.3Q202.48-32.2 202.53-31.55 202.58-30.9 202.58-30.9L202.58-30.9Q202.23-30.9 201.46-30.8 200.68-30.7 199.98-30.5 199.28-30.3 199.13-30.05L199.13-30.05Q198.98-29.7 198.93-29.15 198.88-28.6 198.88-28.15L198.88-28.15Q198.93-26.9 198.98-24.35 199.03-21.8 199.11-18.63 199.18-15.45 199.26-12.35 199.33-9.25 199.38-6.85L199.38-6.85Q199.43-5.45 199.53-4.2 199.63-2.95 199.98-2.1L199.98-2.1Q200.13-1.75 200.88-1.58 201.63-1.4 202.41-1.33 203.18-1.25 203.38-1.25L203.38-1.25Q203.58-0.9 203.56-0.43 203.53 0.05 203.48 0.15L203.48 0.15Q202.03 0.05 200.66-0.03 199.28-0.1 197.68-0.1L197.68-0.1Q195.98-0.1 194.73-0.03 193.48 0.05 191.78 0.15L191.78 0.15Q191.73 0.05 191.68-0.45 191.63-0.95 191.78-1.25L191.78-1.25Q192.08-1.25 192.73-1.33 193.38-1.4 194.03-1.53 194.68-1.65 194.98-1.8L194.98-1.8Q195.23-1.95 195.33-2.65 195.43-3.35 195.43-3.85L195.43-3.85Q195.43-4.4 195.38-5.28 195.33-6.15 195.33-6.7L195.33-6.7Q195.23-10.25 195.13-13.53 195.03-16.8 194.93-20.23 194.83-23.65 194.68-27.6L194.68-27.6Q194.68-27.75 194.58-28.15 194.48-28.55 194.23-28.55L194.23-28.55Q194.13-28.55 193.98-28.2L193.98-28.2Q192.48-24.45 191.21-21.25 189.93-18.05 188.73-15.08 187.53-12.1 186.31-9.03 185.08-5.95 183.68-2.4L183.68-2.4Q183.58-2.2 183.23-1.6 182.88-1 182.51-0.48 182.13 0.05 181.83 0.1L181.83 0.1Q181.73 0.15 181.48 0.05L181.48 0.05Q181.43 0 181.38 0L181.38 0 169.48-28.5Q169.43-25.3 169.33-21.9 169.23-18.5 169.16-15.3 169.08-12.1 169.01-9.53 168.93-6.95 168.88-5.38 168.83-3.8 168.83-3.65L168.83-3.65Q168.83-3.3 168.88-2.88 168.93-2.45 169.03-2.15L169.03-2.15Q169.18-1.8 170.06-1.6 170.93-1.4 171.83-1.33 172.73-1.25 172.93-1.25L172.93-1.25Q173.13-1.05 173.08-0.5 173.03 0.05 172.98 0.15L172.98 0.15Q171.53 0.05 170.48-0.03 169.43-0.1 167.83-0.1L167.83-0.1Q166.13-0.1 164.98-0.03 163.83 0.05 162.13 0.15L162.13 0.15Q162.08 0.05 162.03-0.45 161.98-0.95 162.13-1.25L162.13-1.25Q162.43-1.25 163.31-1.35 164.18-1.45 165.03-1.65 165.88-1.85 166.08-2.15L166.08-2.15Q166.43-2.65 166.53-3.23 166.63-3.8 166.68-4.6L166.68-4.6Q166.83-9 166.96-13.05 167.08-17.1 167.16-20.33 167.23-23.55 167.28-25.58 167.33-27.6 167.33-27.95L167.33-27.95Q167.33-28.5 167.31-29 167.28-29.5 167.13-29.9L167.13-29.9Q167.03-30.2 166.31-30.43 165.58-30.65 164.81-30.78 164.03-30.9 163.73-30.9L163.73-30.9Q163.68-30.9 163.68-31.58 163.68-32.25 163.73-32.3L163.73-32.3Q164.88-32.25 165.58-32.2 166.28-32.15 166.98-32.13 167.68-32.1 168.78-32.1ZM216.48-21.3L216.48-21.3Q217.88-21.3 219.1-20.4 220.33-19.5 221.08-18 221.83-16.5 221.83-14.6L221.83-14.6 221.83-4.55Q221.83-3.6 222.18-2.93 222.53-2.25 223.33-2.25L223.33-2.25Q224.03-2.25 224.43-2.55 224.83-2.85 224.93-2.9L224.93-2.9Q225.03-2.9 225.08-2.75 225.13-2.6 225.13-2.5L225.13-2.5Q225.13-1.95 224.88-1.55L224.88-1.55Q224.58-1.3 223.9-0.85 223.23-0.4 222.5-0.05 221.78 0.3 221.23 0.3L221.23 0.3Q220.18 0.3 219.35-0.75 218.53-1.8 218.28-2.9L218.28-2.9Q218.08-2.7 217.35-2.15 216.63-1.6 215.68-1.03 214.73-0.45 213.8-0.03 212.88 0.4 212.23 0.4L212.23 0.4Q209.83 0.4 208.18-1.23 206.53-2.85 206.53-5.2L206.53-5.2Q206.53-6.7 207.35-7.78 208.18-8.85 208.98-9.15L208.98-9.15Q210.38-9.65 212.1-10.23 213.83-10.8 215.33-11.35 216.83-11.9 217.53-12.2L217.53-12.2Q217.93-12.35 218.03-12.58 218.13-12.8 218.13-13.45L218.13-13.45 218.13-14.75Q218.13-15.85 217.58-16.93 217.03-18 216.08-18.73 215.13-19.45 213.93-19.45L213.93-19.45Q212.68-19.45 212.08-18.65 211.48-17.85 211.23-16.4L211.23-16.4Q210.78-14.05 208.93-14.05L208.93-14.05Q208.13-14.05 207.7-14.7 207.28-15.35 207.28-16.1L207.28-16.1Q207.28-16.25 207.38-16.68 207.48-17.1 207.63-17.3L207.63-17.3Q208.38-18 209.78-18.95 211.18-19.9 212.95-20.6 214.73-21.3 216.48-21.3ZM213.88-2.25L213.88-2.25Q214.73-2.25 215.73-2.65 216.73-3.05 217.43-3.53 218.13-4 218.13-4.25L218.13-4.25 218.13-10.9Q217.18-10.6 215.73-10.15 214.28-9.7 213.58-9.45L213.58-9.45Q212.28-8.95 211.43-8 210.58-7.05 210.58-5.65L210.58-5.65Q210.58-4.3 211.53-3.28 212.48-2.25 213.88-2.25ZM241.48-21.4L241.48-21.4Q244.13-21.4 245.48-20.3 246.83-19.2 247.3-16.9 247.78-14.6 247.78-11.05L247.78-11.05 247.78-5.65Q247.78-4.55 247.8-3.6 247.83-2.65 248.03-2.05L248.03-2.05Q248.13-1.8 248.75-1.6 249.38-1.4 250.08-1.33 250.78-1.25 251.08-1.25L251.08-1.25Q251.23-1.05 251.25-0.55 251.28-0.05 251.08 0.15L251.08 0.15Q249.58 0.05 248.45-0.03 247.33-0.1 245.88-0.1L245.88-0.1Q244.48-0.1 243.33-0.03 242.18 0.05 240.68 0.15L240.68 0.15Q240.48-0.05 240.5-0.55 240.53-1.05 240.68-1.25L240.68-1.25Q240.98-1.25 241.7-1.33 242.43-1.4 243.08-1.6 243.73-1.8 243.78-2.05L243.78-2.05Q243.98-2.65 244-3.6 244.03-4.55 244.03-5.65L244.03-5.65 244.03-10.55Q244.03-13.6 243.63-15.33 243.23-17.05 242.18-17.8 241.13-18.55 239.23-18.55L239.23-18.55Q238.33-18.55 237.25-17.98 236.18-17.4 235.38-16.75 234.58-16.1 234.58-15.85L234.58-15.85 234.58-5.65Q234.58-4.55 234.6-3.6 234.63-2.65 234.83-2.05L234.83-2.05Q234.93-1.8 235.55-1.6 236.18-1.4 236.88-1.33 237.58-1.25 237.88-1.25L237.88-1.25Q238.03-1.05 238.05-0.55 238.08-0.05 237.88 0.15L237.88 0.15Q236.38 0.05 235.25-0.03 234.13-0.1 232.68-0.1L232.68-0.1Q231.28-0.1 230.13-0.03 228.98 0.05 227.48 0.15L227.48 0.15Q227.28-0.05 227.3-0.55 227.33-1.05 227.48-1.25L227.48-1.25Q227.78-1.25 228.5-1.33 229.23-1.4 229.88-1.6 230.53-1.8 230.58-2.05L230.58-2.05Q230.78-2.65 230.8-3.6 230.83-4.55 230.83-5.65L230.83-5.65 230.83-14.55Q230.83-15.05 230.8-15.95 230.78-16.85 230.58-17.3L230.58-17.3Q230.43-17.75 229.73-17.93 229.03-18.1 228.33-18.13 227.63-18.15 227.43-18.15L227.43-18.15Q227.38-18.25 227.33-18.75 227.28-19.25 227.43-19.45L227.43-19.45Q229.33-19.7 231.13-20.2 232.93-20.7 234.38-21.5L234.38-21.5Q234.58-21.5 234.75-21.2 234.93-20.9 234.93-20.7L234.93-20.7Q234.93-20.55 234.85-19.93 234.78-19.3 234.7-18.7 234.63-18.1 234.63-17.9L234.63-17.9Q234.63-17.7 234.73-17.7L234.73-17.7Q234.78-17.7 234.88-17.8L234.88-17.8Q235.38-18.35 236.5-19.2 237.63-20.05 238.98-20.73 240.33-21.4 241.48-21.4ZM263.42-21.3L263.42-21.3Q264.82-21.3 266.05-20.4 267.27-19.5 268.02-18 268.77-16.5 268.77-14.6L268.77-14.6 268.77-4.55Q268.77-3.6 269.12-2.93 269.47-2.25 270.27-2.25L270.27-2.25Q270.97-2.25 271.37-2.55 271.77-2.85 271.87-2.9L271.87-2.9Q271.97-2.9 272.02-2.75 272.07-2.6 272.07-2.5L272.07-2.5Q272.07-1.95 271.82-1.55L271.82-1.55Q271.52-1.3 270.85-0.85 270.17-0.4 269.45-0.05 268.72 0.3 268.17 0.3L268.17 0.3Q267.12 0.3 266.3-0.75 265.47-1.8 265.22-2.9L265.22-2.9Q265.02-2.7 264.3-2.15 263.57-1.6 262.62-1.03 261.67-0.45 260.75-0.03 259.82 0.4 259.17 0.4L259.17 0.4Q256.77 0.4 255.12-1.23 253.47-2.85 253.47-5.2L253.47-5.2Q253.47-6.7 254.3-7.78 255.12-8.85 255.92-9.15L255.92-9.15Q257.32-9.65 259.05-10.23 260.77-10.8 262.27-11.35 263.77-11.9 264.47-12.2L264.47-12.2Q264.87-12.35 264.97-12.58 265.07-12.8 265.07-13.45L265.07-13.45 265.07-14.75Q265.07-15.85 264.52-16.93 263.97-18 263.02-18.73 262.07-19.45 260.87-19.45L260.87-19.45Q259.62-19.45 259.02-18.65 258.42-17.85 258.17-16.4L258.17-16.4Q257.72-14.05 255.87-14.05L255.87-14.05Q255.07-14.05 254.65-14.7 254.22-15.35 254.22-16.1L254.22-16.1Q254.22-16.25 254.32-16.68 254.42-17.1 254.57-17.3L254.57-17.3Q255.32-18 256.72-18.95 258.12-19.9 259.9-20.6 261.67-21.3 263.42-21.3ZM260.82-2.25L260.82-2.25Q261.67-2.25 262.67-2.65 263.67-3.05 264.37-3.53 265.07-4 265.07-4.25L265.07-4.25 265.07-10.9Q264.12-10.6 262.67-10.15 261.22-9.7 260.52-9.45L260.52-9.45Q259.22-8.95 258.37-8 257.52-7.05 257.52-5.65L257.52-5.65Q257.52-4.3 258.47-3.28 259.42-2.25 260.82-2.25ZM281.62-3.25L287.37-3.25Q289.32-3.25 291.05-2.55 292.77-1.85 293.85-0.7 294.92 0.45 294.92 1.85L294.92 1.85Q294.92 3.35 293.9 4.95 292.87 6.55 291.12 7.95 289.37 9.35 287.07 10.23 284.77 11.1 282.22 11.1L282.22 11.1Q280.27 11.1 278.32 10.45 276.37 9.8 275.07 8.47 273.77 7.15 273.77 5.15L273.77 5.15Q273.77 4.05 274.72 3.05 275.67 2.05 276.92 1.25 278.17 0.45 278.97 0.05L278.97 0.05Q278.12-0.25 277.19-0.85 276.27-1.45 275.62-2.38 274.97-3.3 274.97-4.5L274.97-4.5Q275.42-5 276.25-5.68 277.07-6.35 277.9-6.95 278.72-7.55 279.17-7.8L279.17-7.8Q277.37-8.8 276.25-10.53 275.12-12.25 275.12-14.05L275.12-14.05Q275.12-16 276.19-17.68 277.27-19.35 279.15-20.4 281.02-21.45 283.37-21.45L283.37-21.45Q284.97-21.45 286.07-21.03 287.17-20.6 287.82-20.35L287.82-20.35Q288.52-20.1 288.55-20.1 288.57-20.1 288.92-20L288.92-20 294.17-20.75Q294.62-20.6 294.62-20.25L294.62-20.25Q294.62-19.95 294.27-19.23 293.92-18.5 293.52-18.25L293.52-18.25Q292.92-18.3 292.17-18.32 291.42-18.35 290.87-18.4 290.32-18.45 290.32-18.45L290.32-18.45Q290.12-18.45 290.12-18.3L290.12-18.3Q290.32-18.1 290.9-16.82 291.47-15.55 291.47-13.85L291.47-13.85Q291.47-12.15 290.4-10.5 289.32-8.85 287.44-7.78 285.57-6.7 283.22-6.7L283.22-6.7Q282.57-6.7 281.72-6.85 280.87-7 280.47-7.15L280.47-7.15Q279.82-6.8 279.25-6.2 278.67-5.6 278.67-5L278.67-5Q278.67-4.65 279.42-3.95 280.17-3.25 281.62-3.25L281.62-3.25ZM285.12 0.2L285.12 0.2Q284.67 0.2 283.65 0.23 282.62 0.25 281.69 0.3 280.77 0.35 280.57 0.45L280.57 0.45Q279.77 0.95 278.72 1.85 277.67 2.75 277.67 3.7L277.67 3.7Q277.67 6.05 279.37 7.63 281.07 9.2 284.17 9.2L284.17 9.2Q285.87 9.2 287.57 8.45 289.27 7.7 290.42 6.5 291.57 5.3 291.57 3.95L291.57 3.95Q291.57 3.25 290.92 2.38 290.27 1.5 288.87 0.85 287.47 0.2 285.12 0.2ZM283.17-19.95L283.17-19.95Q281.77-19.95 280.82-19.1 279.87-18.25 279.37-16.95 278.87-15.65 278.87-14.25L278.87-14.25Q278.87-12.75 279.42-11.35 279.97-9.95 281.02-9.05 282.07-8.15 283.57-8.15L283.57-8.15Q284.92-8.15 285.85-8.97 286.77-9.8 287.25-11.08 287.72-12.35 287.72-13.7L287.72-13.7Q287.72-15.25 287.22-16.68 286.72-18.1 285.72-19.03 284.72-19.95 283.17-19.95ZM300.82-12.1L300.82-12.1Q300.77-9 301.87-6.9 302.97-4.8 304.82-3.78 306.67-2.75 308.82-2.75L308.82-2.75Q310.17-2.75 311.27-3.23 312.37-3.7 313.12-4.33 313.87-4.95 314.17-5.3L314.17-5.3Q314.22-5.3 314.39-5.13 314.57-4.95 314.57-4.65L314.57-4.65Q314.57-4.25 314.27-3.75L314.27-3.75Q313.82-3.05 312.87-2.08 311.92-1.1 310.47-0.35 309.02 0.4 307.12 0.4L307.12 0.4Q304.27 0.4 302.07-0.95 299.87-2.3 298.62-4.6 297.37-6.9 297.37-9.75L297.37-9.75Q297.37-12.2 298.24-14.33 299.12-16.45 300.54-18.03 301.97-19.6 303.67-20.5 305.37-21.4 306.97-21.4L306.97-21.4Q309.17-21.4 310.59-20.65 312.02-19.9 312.84-18.8 313.67-17.7 313.99-16.6 314.32-15.5 314.32-14.75L314.32-14.75Q314.32-13.7 314.07-13.1 313.82-12.5 313.12-12.45L313.12-12.45Q312.67-12.4 311.34-12.38 310.02-12.35 308.32-12.3 306.62-12.25 304.97-12.2 303.32-12.15 302.17-12.13 301.02-12.1 300.82-12.1ZM301.07-13.9L301.07-13.9 309.02-13.9Q309.47-13.9 309.79-14.15 310.12-14.4 310.17-15.05L310.17-15.05Q310.22-15.65 309.82-16.75 309.42-17.85 308.54-18.75 307.67-19.65 306.17-19.65L306.17-19.65Q304.62-19.65 303.62-18.78 302.62-17.9 302.04-16.78 301.47-15.65 301.24-14.78 301.02-13.9 301.07-13.9ZM331.17-21.35L331.17-21.35Q332.12-21.35 332.97-20.93 333.81-20.5 334.17-19.9L334.17-19.9Q334.26-19.7 334.31-19.35 334.37-19 334.37-18.6L334.37-18.6Q334.37-17.25 333.74-16.65 333.12-16.05 332.72-16.05L332.72-16.05Q332.22-16.05 331.76-16.4 331.31-16.75 330.92-17L330.92-17Q330.56-17.25 330.19-17.43 329.81-17.6 329.12-17.6L329.12-17.6Q328.06-17.6 327.19-16.73 326.31-15.85 325.76-14.8 325.22-13.75 325.22-13.2L325.22-13.2 325.22-5.65Q325.22-4.55 325.24-3.6 325.26-2.65 325.47-2.05L325.47-2.05Q325.56-1.8 326.47-1.6 327.37-1.4 328.37-1.33 329.37-1.25 329.67-1.25L329.67-1.25Q329.81-1.05 329.84-0.55 329.87-0.05 329.67 0.15L329.67 0.15Q328.17 0.05 326.62-0.03 325.06-0.1 323.62-0.1L323.62-0.1Q322.22-0.1 320.92-0.03 319.62 0.05 318.12 0.15L318.12 0.15Q317.92-0.05 317.94-0.55 317.97-1.05 318.12-1.25L318.12-1.25Q318.42-1.25 319.14-1.33 319.87-1.4 320.51-1.6 321.17-1.8 321.22-2.05L321.22-2.05Q321.42-2.65 321.44-3.6 321.47-4.55 321.47-5.65L321.47-5.65 321.47-14.75Q321.47-15.25 321.44-16.05 321.42-16.85 321.22-17.3L321.22-17.3Q321.06-17.75 320.37-17.93 319.67-18.1 318.97-18.13 318.26-18.15 318.06-18.15L318.06-18.15Q318.01-18.25 317.97-18.75 317.92-19.25 318.06-19.45L318.06-19.45Q319.97-19.7 321.76-20.2 323.56-20.7 325.01-21.5L325.01-21.5Q325.22-21.5 325.39-21.2 325.56-20.9 325.56-20.7L325.56-20.7Q325.56-20.55 325.47-19.55 325.37-18.55 325.29-17.53 325.22-16.5 325.22-16.2L325.22-16.2Q325.22-16.05 325.29-16.05 325.37-16.05 325.42-16.1L325.42-16.1Q325.92-17.15 326.84-18.38 327.76-19.6 328.92-20.48 330.06-21.35 331.17-21.35Z" opacity="1" transform="matrix(1,0,0,1,0,0)" fill="#6575a8" class="wordmark-text-0" data-fill-palette-color="primary" id="text-0"></path></svg></g></svg></g></svg></g></svg></g><g transform="matrix(1,0,0,1,425.6656644370867,0)"><svg viewBox="0 0 89.96306160633529 74.0865392592727" height="74.0865392592727" width="89.96306160633529"><g><svg version="1.1" xmlns="http://www.w3.org/2000/svg" xmlns:xlink="http://www.w3.org/1999/xlink" x="0" y="0" viewBox="0 0 100.001 82.353" enable-background="new 0 0 100 82.353" xml:space="preserve" id="icon-0" width="89.96306160633529" height="74.0865392592727" class="icon-icon-0" data-fill-palette-color="accent"><path d="M0 0V58.824C17.647 76.472 41.177 70.59 41.177 82.353H47.059V29.412C47.059 11.765 17.647 11.765 0 0" fill="#6498d1" data-fill-palette-color="accent"></path><path d="M100 0C82.353 11.765 52.943 11.765 52.943 29.412V82.353H58.825C58.825 70.59 82.353 76.472 100.001 58.825V0z" fill="#6498d1" data-fill-palette-color="accent"></path></svg></g></svg></g></svg></g><defs></defs></svg><rect width="395.52" height="56.8290836561342" fill="none" stroke="none" visibility="hidden"></rect></g></svg></g></svg>